<?xml version="1.0" encoding="UTF-8" standalone="no"?>
<!-- Created with Inkscape (http://www.inkscape.org/) -->

<svg
   xmlns:dc="http://purl.org/dc/elements/1.1/"
   xmlns:cc="http://creativecommons.org/ns#"
   xmlns:rdf="http://www.w3.org/1999/02/22-rdf-syntax-ns#"
   xmlns:svg="http://www.w3.org/2000/svg"
   xmlns="http://www.w3.org/2000/svg"
   xmlns:sodipodi="http://sodipodi.sourceforge.net/DTD/sodipodi-0.dtd"
   xmlns:inkscape="http://www.inkscape.org/namespaces/inkscape"
   width="105mm"
   height="148mm"
   viewBox="-2 0 332.36221 468.47242"
   id="svg4404"
   version="1.1"
   inkscape:version="0.92.3 (2405546, 2018-03-11)"
   sodipodi:docname="carte_jeu_verso_P.svg"
   inkscape:export-filename="I:\GT_transversaux\Culture_Info\2_Partage_doc_formation\Jeu_plagiat_citation\new_cartes_jeu_plagiat_recto_1.png"
   inkscape:export-xdpi="600.02155"
   inkscape:export-ydpi="600.02155"
   style="enable-background:new">
  <defs
     id="defs4406" />
  <sodipodi:namedview
     id="base"
     pagecolor="#ffffff"
     bordercolor="#000000"
     borderopacity="1"
     inkscape:pageopacity="0"
     inkscape:pageshadow="2"
     inkscape:zoom="1.11125"
     inkscape:cx="-138.08059"
     inkscape:cy="357.66327"
     inkscape:document-units="px"
     inkscape:current-layer="layer1"
     showgrid="true"
     inkscape:window-width="1680"
     inkscape:window-height="1027"
     inkscape:window-x="-8"
     inkscape:window-y="-8"
     inkscape:window-maximized="1"
     inkscape:pagecheckerboard="false"
     scale-x="0.8375"
     inkscape:showpageshadow="true"
     showborder="true"
     viewbox-x="-2">
    <inkscape:grid
       type="xygrid"
       id="grid4952" />
  </sodipodi:namedview>
  <metadata
     id="metadata4409">
    <rdf:RDF>
      <cc:Work
         rdf:about="">
        <dc:format>image/svg+xml</dc:format>
        <dc:type
           rdf:resource="http://purl.org/dc/dcmitype/StillImage" />
        <dc:title></dc:title>
        <cc:license
           rdf:resource="http://creativecommons.org/licenses/by-sa/4.0/" />
      </cc:Work>
      <cc:License
         rdf:about="http://creativecommons.org/licenses/by-sa/4.0/">
        <cc:permits
           rdf:resource="http://creativecommons.org/ns#Reproduction" />
        <cc:permits
           rdf:resource="http://creativecommons.org/ns#Distribution" />
        <cc:requires
           rdf:resource="http://creativecommons.org/ns#Notice" />
        <cc:requires
           rdf:resource="http://creativecommons.org/ns#Attribution" />
        <cc:permits
           rdf:resource="http://creativecommons.org/ns#DerivativeWorks" />
        <cc:requires
           rdf:resource="http://creativecommons.org/ns#ShareAlike" />
      </cc:License>
    </rdf:RDF>
  </metadata>
  <g
     inkscape:groupmode="layer"
     id="layer2"
     inkscape:label="Calque 2"
     style="opacity:1"
     transform="translate(0,-527.95276)"
     sodipodi:insensitive="true">
    <rect
       style="fill:#000000;fill-opacity:1;stroke:#f2efdb;stroke-width:0.87390542;stroke-opacity:1"
       id="rect839"
       width="343.375"
       height="485.75003"
       x="-8.375"
       y="519.05017" />
  </g>
  <g
     inkscape:label="Calque 1"
     inkscape:groupmode="layer"
     id="layer1"
     transform="translate(0,-527.95276)"
     style="display:inline">
    <text
       xml:space="preserve"
       style="font-style:normal;font-weight:normal;font-size:33.5px;line-height:1.25;font-family:sans-serif;letter-spacing:0px;word-spacing:0px;fill:#000000;fill-opacity:1;stroke:none;stroke-width:0.83750004"
       x="226.125"
       y="820.55023"
       id="text4554"><tspan
         sodipodi:role="line"
         id="tspan4552"
         x="226.125"
         y="851.11328"
         style="stroke-width:0.83750004" /></text>
    <rect
       style="fill:#fd9241;fill-opacity:1;stroke:none;stroke-width:9.49908447;stroke-miterlimit:4;stroke-dasharray:none;stroke-dashoffset:0;stroke-opacity:1"
       id="rect4954-8-3-6"
       width="301.5"
       height="432.22986"
       x="10.683075"
       y="546.07404"
       rx="27.258356"
       ry="26.598761" />
    <text
       xml:space="preserve"
       style="font-style:normal;font-weight:normal;font-size:10.72000027px;line-height:0%;font-family:sans-serif;letter-spacing:0px;word-spacing:0px;fill:#1f1c17;fill-opacity:1;stroke:none;stroke-width:0.89333338px;stroke-linecap:butt;stroke-linejoin:miter;stroke-opacity:1"
       x="59.675728"
       y="681.71497"
       id="text4993-5-3-3"><tspan
         sodipodi:role="line"
         x="59.675728"
         y="681.71497"
         id="tspan5054-0-4-1"
         style="font-style:normal;font-variant:normal;font-weight:bold;font-stretch:normal;font-size:49.13333511px;line-height:1.25;font-family:Tuffy;-inkscape-font-specification:'Tuffy Bold';fill:#1f1c17;fill-opacity:1;stroke:none;stroke-width:0.89333338px">PLAGIAT</tspan></text>
    <path
       style="display:inline;fill:#1f1c17;fill-opacity:1;stroke:none;stroke-width:0.89333338"
       inkscape:connector-curvature="0"
       d="m 161.4331,717.52232 c -24.61631,0 -44.66669,19.95112 -44.66669,44.66664 0,24.7156 20.05038,44.6667 44.66669,44.6667 24.71554,0 44.66665,-19.9511 44.66665,-44.6667 0,-24.71552 -19.95111,-44.66664 -44.66665,-44.66664 z m 0.89329,74.74222 c -3.07702,0.39703 -6.45182,-1.68739 -7.94073,-3.87113 h 14.29336 c -1.48891,2.18374 -3.6726,3.57335 -6.35263,3.87113 z m 6.74968,-6.94815 h -15.18668 c -1.19115,0 -2.18374,-0.89336 -2.18374,-1.98518 0,-1.09182 0.99259,-1.98519 2.18374,-1.98519 h 15.18668 c 1.19106,0 2.18367,0.89337 2.18367,1.98519 0,0.99259 -0.99261,1.98518 -2.18367,1.98518 z m 9.13181,-23.62369 c -1.09182,1.58814 -2.28295,3.17628 -3.3748,4.66519 -1.78665,2.38221 -3.07701,4.86369 -3.27558,7.7422 -0.0993,0.39703 -0.0993,0.89337 -0.0993,1.29038 0,1.6874 -1.19112,2.87856 -3.07705,2.87856 h -0.1985 c -1.88593,0 -13.00295,0 -13.89632,0 -1.58815,0 -2.8785,-1.19116 -2.8785,-2.58077 0,-3.17633 -1.09186,-5.95557 -2.87852,-8.53632 -1.4889,-2.08442 -2.97778,-3.97039 -4.26815,-6.15405 -4.06962,-6.55111 -4.06962,-15.78224 1.6874,-22.13482 3.47408,-3.87113 7.94075,-6.05482 13.40001,-6.65036 0.79408,-0.0997 1.48889,-0.19855 2.28296,-0.19855 8.43703,0 16.17927,5.06224 18.85926,12.7052 1.9852,5.85627 1.09184,11.61332 -2.28296,16.97334 z"
       id="path4-28-4-3-4-9" />
  </g>
</svg>
